<svg data-v-fde0c5aa="" xmlns="http://www.w3.org/2000/svg" viewBox="0 0 300 300" class="iconLeft"><!----><defs data-v-fde0c5aa=""><!----></defs><rect data-v-fde0c5aa="" fill="transparent" x="0" y="0" width="300px" height="300px" class="logo-background-square"></rect><defs data-v-fde0c5aa=""><!----></defs><g data-v-fde0c5aa="" id="0c23d446-8f4b-4c88-ae39-5ebeb44a01a2" fill="#000000" transform="matrix(2.738845396504762,0,0,2.738845396504762,102.70810771640645,123.39211851401646)"><path d="M4.62 6.83L4.62 6.83Q6.02 6.83 6.78 7.79L6.78 7.79L6.78 7.79Q7.53 8.75 7.53 10.33L7.53 10.33L7.53 10.33Q7.53 10.60 7.52 10.74L7.52 10.74L2.49 10.74L2.49 10.74Q2.55 12.03 3.09 12.63L3.09 12.63L3.09 12.63Q3.63 13.24 4.55 13.24L4.55 13.24L4.55 13.24Q5.19 13.24 5.68 12.95L5.68 12.95L5.68 12.95Q6.16 12.66 6.45 12.18L6.45 12.18L7.36 12.67L7.36 12.67Q6.94 13.34 6.21 13.75L6.21 13.75L6.21 13.75Q5.47 14.15 4.58 14.15L4.58 14.15L4.58 14.15Q3.72 14.15 3.00 13.78L3.00 13.78L3.00 13.78Q2.28 13.40 1.85 12.57L1.85 12.57L1.85 12.57Q1.41 11.75 1.41 10.49L1.41 10.49L1.41 10.49Q1.41 9.21 1.86 8.39L1.86 8.39L1.86 8.39Q2.31 7.57 3.04 7.20L3.04 7.20L3.04 7.20Q3.77 6.83 4.62 6.83L4.62 6.83ZM2.53 9.84L6.41 9.84L6.41 9.84Q6.36 8.88 5.91 8.31L5.91 8.31L5.91 8.31Q5.46 7.74 4.58 7.74L4.58 7.74L4.58 7.74Q3.77 7.74 3.21 8.24L3.21 8.24L3.21 8.24Q2.66 8.74 2.53 9.84L2.53 9.84ZM13.34 6.85L13.34 6.85Q14.52 6.85 15.06 7.55L15.06 7.55L15.06 7.55Q15.61 8.25 15.61 9.80L15.61 9.80L15.61 14L14.60 14L14.60 10.14L14.60 10.14Q14.60 9.21 14.48 8.71L14.48 8.71L14.48 8.71Q14.35 8.20 14.04 7.98L14.04 7.98L14.04 7.98Q13.72 7.76 13.12 7.76L13.12 7.76L13.12 7.76Q12.59 7.76 12.11 8.02L12.11 8.02L12.11 8.02Q11.63 8.27 11.33 8.65L11.33 8.65L11.33 8.65Q11.02 9.03 10.95 9.35L10.95 9.35L10.95 14L9.94 14L9.94 9.17L9.94 7L10.77 7L10.91 8.06L10.91 8.06Q11.30 7.50 11.93 7.17L11.93 7.17L11.93 7.17Q12.56 6.85 13.34 6.85L13.34 6.85ZM22.47 13.12L22.47 13.12Q23.30 13.12 23.74 13.49L23.74 13.49L23.74 13.49Q24.18 13.86 24.18 14.49L24.18 14.49L24.18 14.49Q24.18 15.05 23.86 15.53L23.86 15.53L23.86 15.53Q23.55 16.02 22.86 16.32L22.86 16.32L22.86 16.32Q22.16 16.63 21.10 16.63L21.10 16.63L21.10 16.63Q19.56 16.63 18.75 16.19L18.75 16.19L18.75 16.19Q17.95 15.75 17.95 14.94L17.95 14.94L17.95 14.94Q17.95 14.18 18.66 13.59L18.66 13.59L18.66 13.59Q18.37 13.30 18.37 12.82L18.37 12.82L18.37 12.82Q18.37 12.10 19.12 11.47L19.12 11.47L19.12 11.47Q18.12 10.84 18.12 9.37L18.12 9.37L18.12 9.37Q18.12 7.99 18.92 7.41L18.92 7.41L18.92 7.41Q19.73 6.83 21.01 6.83L21.01 6.83L21.01 6.83Q22.36 6.83 23.10 7.42L23.10 7.42L24.02 6.51L24.67 7.13L23.66 8.13L23.66 8.13Q23.90 8.64 23.90 9.37L23.90 9.37L23.90 9.37Q23.90 10.72 23.04 11.32L23.04 11.32L23.04 11.32Q22.18 11.91 21.01 11.91L21.01 11.91L21.01 11.91Q20.33 11.91 19.78 11.76L19.78 11.76L19.78 11.76Q19.38 12.25 19.38 12.63L19.38 12.63L19.38 12.63Q19.38 13.10 20.01 13.10L20.01 13.10L20.40 13.12L22.46 13.12L22.47 13.12ZM21.01 7.73L21.01 7.73Q19.99 7.73 19.59 8.09L19.59 8.09L19.59 8.09Q19.18 8.46 19.18 9.37L19.18 9.37L19.18 9.37Q19.18 10.26 19.62 10.63L19.62 10.63L19.62 10.63Q20.06 11.00 21.01 11.00L21.01 11.00L21.01 11.00Q21.95 11.00 22.39 10.63L22.39 10.63L22.39 10.63Q22.83 10.26 22.83 9.37L22.83 9.37L22.83 9.37Q22.83 8.71 22.66 8.36L22.66 8.36L22.66 8.36Q22.48 8.01 22.10 7.87L22.10 7.87L22.10 7.87Q21.71 7.73 21.01 7.73L21.01 7.73ZM23.11 14.60L23.11 14.60Q23.11 14.34 22.89 14.18L22.89 14.18L22.89 14.18Q22.67 14.01 22.08 14.01L22.08 14.01L20.01 14.01L20.01 14.01Q19.61 14.01 19.32 13.93L19.32 13.93L19.32 13.93Q19.04 14.34 19.04 14.74L19.04 14.74L19.04 14.74Q19.04 14.90 19.08 15.02L19.08 15.02L19.08 15.02Q19.39 15.78 21.10 15.78L21.10 15.78L21.10 15.78Q22.18 15.78 22.64 15.44L22.64 15.44L22.64 15.44Q23.11 15.11 23.11 14.60L23.11 14.60ZM30.81 13.30L30.81 13.30Q31.14 13.30 31.58 13.24L31.58 13.24L31.58 13.24Q32.02 13.17 32.21 13.13L32.21 13.13L32.21 14L32.21 14Q32.19 14 31.77 14.08L31.77 14.08L31.77 14.08Q31.36 14.15 30.60 14.15L30.60 14.15L30.60 14.15Q29.81 14.15 29.25 13.76L29.25 13.76L29.25 13.76Q28.70 13.36 28.70 12.32L28.70 12.32L28.70 3.70L26.49 3.70L26.49 2.80L29.71 2.80L29.71 12.11L29.71 12.11Q29.71 12.85 30.02 13.08L30.02 13.08L30.02 13.08Q30.32 13.30 30.81 13.30L30.81 13.30ZM37.80 5.15L37.80 5.15Q37.41 5.15 37.14 4.89L37.14 4.89L37.14 4.89Q36.86 4.62 36.86 4.23L36.86 4.23L36.86 4.23Q36.86 3.84 37.14 3.57L37.14 3.57L37.14 3.57Q37.41 3.30 37.80 3.30L37.80 3.30L37.80 3.30Q38.19 3.30 38.46 3.57L38.46 3.57L38.46 3.57Q38.72 3.84 38.72 4.23L38.72 4.23L38.72 4.23Q38.72 4.62 38.46 4.89L38.46 4.89L38.46 4.89Q38.19 5.15 37.80 5.15L37.80 5.15ZM38.33 13.10L40.42 13.10L40.42 14L37.32 14L37.32 7.90L34.85 7.90L34.85 7L38.33 7L38.33 13.10ZM46.23 14.15L46.23 14.15Q45.33 14.15 44.50 13.87L44.50 13.87L44.50 13.87Q43.67 13.59 43.25 13.05L43.25 13.05L44.13 12.46L44.13 12.46Q44.37 12.81 44.99 13.03L44.99 13.03L44.99 13.03Q45.61 13.24 46.26 13.24L46.26 13.24L46.26 13.24Q47.03 13.24 47.59 12.96L47.59 12.96L47.59 12.96Q48.16 12.67 48.16 12.07L48.16 12.07L48.16 12.07Q48.16 11.58 47.66 11.32L47.66 11.32L47.66 11.32Q47.15 11.06 46.73 10.96L46.73 10.96L46.73 10.96Q46.30 10.85 46.21 10.82L46.21 10.82L46.21 10.82Q45.54 10.64 45.02 10.45L45.02 10.45L45.02 10.45Q44.51 10.26 44.04 9.82L44.04 9.82L44.04 9.82Q43.57 9.38 43.57 8.69L43.57 8.69L43.57 8.69Q43.57 8.06 43.99 7.64L43.99 7.64L43.99 7.64Q44.42 7.22 45.07 7.03L45.07 7.03L45.07 7.03Q45.71 6.83 46.35 6.83L46.35 6.83L46.35 6.83Q47.15 6.83 47.88 7.13L47.88 7.13L47.88 7.13Q48.61 7.42 48.96 7.97L48.96 7.97L48.10 8.53L48.10 8.53Q47.87 8.13 47.36 7.94L47.36 7.94L47.36 7.94Q46.86 7.74 46.35 7.74L46.35 7.74L46.35 7.74Q45.75 7.74 45.20 7.99L45.20 7.99L45.20 7.99Q44.65 8.23 44.65 8.75L44.65 8.75L44.65 8.75Q44.65 9.18 45.08 9.41L45.08 9.41L45.08 9.41Q45.51 9.65 45.89 9.75L45.89 9.75L45.89 9.75Q46.27 9.86 46.37 9.88L46.37 9.88L46.37 9.88Q46.47 9.91 47.24 10.10L47.24 10.10L47.24 10.10Q48.02 10.29 48.63 10.80L48.63 10.80L48.63 10.80Q49.24 11.31 49.24 12.01L49.24 12.01L49.24 12.01Q49.24 12.73 48.80 13.21L48.80 13.21L48.80 13.21Q48.36 13.69 47.67 13.92L47.67 13.92L47.67 13.92Q46.98 14.15 46.23 14.15L46.23 14.15ZM55.12 6.85L55.12 6.85Q56.34 6.85 56.88 7.57L56.88 7.57L56.88 7.57Q57.43 8.30 57.43 10.00L57.43 10.00L57.43 14L56.42 14L56.42 10.32L56.42 10.32Q56.42 9.35 56.31 8.82L56.31 8.82L56.31 8.82Q56.21 8.29 55.89 8.02L55.89 8.02L55.89 8.02Q55.57 7.76 54.92 7.76L54.92 7.76L54.92 7.76Q54.33 7.76 53.85 7.99L53.85 7.99L53.85 7.99Q53.37 8.23 53.06 8.61L53.06 8.61L53.06 8.61Q52.75 8.99 52.65 9.38L52.65 9.38L52.65 14L51.65 14L51.65 2.80L52.65 2.80L52.65 7.95L52.65 7.95Q53.06 7.43 53.68 7.14L53.68 7.14L53.68 7.14Q54.31 6.85 55.12 6.85L55.12 6.85Z"></path></g><defs data-v-fde0c5aa=""><linearGradient data-v-fde0c5aa="" gradientTransform="rotate(25)" id="5670c1f3-3ba3-4ee1-9554-c4bd2029a5ca" x1="0%" y1="0%" x2="100%" y2="0%"><stop data-v-fde0c5aa="" offset="0%" stop-color="#462AB9" stop-opacity="1"></stop><stop data-v-fde0c5aa="" offset="100%" stop-color="#737048" stop-opacity="1"></stop></linearGradient></defs><g data-v-fde0c5aa="" id="dcf7bbce-bd3f-4c68-ac58-13d1a1b06e7f" stroke="none" fill="url(#5670c1f3-3ba3-4ee1-9554-c4bd2029a5ca)" transform="matrix(0.6734705737900065,0,0,0.6734705737900065,33.29425364577991,115.775236581)"><path d="M13.572 36.355a3.616 3.616 0 0 0-3.615 3.616v21.694a3.614 3.614 0 0 0 3.615 3.615 3.615 3.615 0 0 0 3.616-3.615V39.971a3.617 3.617 0 0 0-3.616-3.616zm12.053-15.667a3.615 3.615 0 0 0-3.615 3.616v53.029a3.614 3.614 0 0 0 3.615 3.615 3.615 3.615 0 0 0 3.616-3.615V24.304a3.617 3.617 0 0 0-3.616-3.616zM37.677 8.636a3.616 3.616 0 0 0-3.616 3.616v77.133a3.615 3.615 0 0 0 7.232 0V12.252a3.617 3.617 0 0 0-3.616-3.616zm12.052 21.092a3.616 3.616 0 0 0-3.616 3.615v34.951a3.615 3.615 0 0 0 7.231 0V33.343a3.616 3.616 0 0 0-3.615-3.615zM61.78 8.636a3.616 3.616 0 0 0-3.615 3.616v77.133a3.615 3.615 0 0 0 7.23 0V12.252a3.615 3.615 0 0 0-3.615-3.616zm12.053 18.078a3.616 3.616 0 0 0-3.615 3.616v40.976a3.616 3.616 0 1 0 7.23 0V30.33a3.617 3.617 0 0 0-3.615-3.616zm12.052 10.244a3.617 3.617 0 0 0-3.616 3.616v20.489a3.616 3.616 0 0 0 7.231-.001V40.574a3.617 3.617 0 0 0-3.615-3.616z"></path></g><!----></svg>